<?xml version="1.0" encoding="iso-8859-1"?>
<!-- Generator: Adobe Illustrator 19.0.0, SVG Export Plug-In . SVG Version: 6.00 Build 0)  -->
<svg version="1.1" id="Layer_1" xmlns="http://www.w3.org/2000/svg" xmlns:xlink="http://www.w3.org/1999/xlink" x="0px" y="0px"
	 viewBox="0 0 472.615 472.615" style="enable-background:new 0 0 472.615 472.615;" xml:space="preserve">
<g>
	<g>
		<path d="M248.525,171.559c-7.326,1.548-15.261,2.601-23.243,3.117v72.963h70.942C278.02,226.888,260.036,201.116,248.525,171.559z
			"/>
	</g>
</g>
<g>
	<g>
		<path d="M127.917,380.978c17.45,49.743,44.896,84.696,75.858,91.332V363.218C177.269,364.52,151.667,370.519,127.917,380.978z"/>
	</g>
</g>
<g>
	<g>
		<path d="M128.091,135.343c23.7,10.413,49.244,16.38,75.684,17.68V44.476C172.911,51.091,145.549,85.854,128.091,135.343z"/>
	</g>
</g>
<g>
	<g>
		<path d="M247.645,54.648c-7.307-5.023-14.77-8.514-22.363-10.132V153.11c5.66-0.421,11.244-1.18,16.497-2.184
			c-3.618-13.722-5.743-28.102-5.743-43.084C236.036,88.865,240.257,70.891,247.645,54.648z"/>
	</g>
</g>
<g>
	<g>
		<path d="M108.531,269.147c0.844,32.614,5.346,63.633,12.874,91.142c25.832-11.066,53.642-17.295,82.37-18.578v-72.564H108.531z"/>
	</g>
</g>
<g>
	<g>
		<path d="M108.107,391.007c-13.23,7.565-25.668,16.613-37.211,27.011c22.688,20.435,49.575,36.283,79.396,45.635
			C133.339,445.723,118.884,420.958,108.107,391.007z"/>
	</g>
</g>
<g>
	<g>
		<path d="M55.921,113.641C23.25,149.408,2.567,196.119,0,247.64h87.029c0.854-36.721,5.907-71.069,14.508-101.295
			C85.208,137.441,69.982,126.395,55.921,113.641z"/>
	</g>
</g>
<g>
	<g>
		<path d="M71.198,98.495c11.501,10.323,23.888,19.31,37.059,26.828c10.759-29.754,25.166-54.347,42.036-72.189
			C120.604,62.443,93.822,78.193,71.198,98.495z"/>
	</g>
</g>
<g>
	<g>
		<path d="M87.029,269.147H0c2.559,51.378,23.136,97.97,55.648,133.699c14.1-12.829,29.379-23.929,45.768-32.877
			C92.894,339.854,87.878,305.681,87.029,269.147z"/>
	</g>
</g>
<g>
	<g>
		<path d="M121.55,156.021c-7.606,27.63-12.17,58.81-13.018,91.618h95.244v-73.111C175.101,173.248,147.341,167.048,121.55,156.021z
			"/>
	</g>
</g>
<g>
	<g>
		<path d="M320.439,272.607c-1.206-1.129-2.417-2.273-3.649-3.46h-91.508v72.565c28.747,1.284,56.571,7.512,82.414,18.589
			c5.207-19.036,9.107-39.699,11.208-61.655l0.283-2.51C320.502,285.264,320.889,277.489,320.439,272.607z"/>
	</g>
</g>
<g>
	<g>
		<circle cx="365.095" cy="107.845" r="38.538"/>
	</g>
</g>
<g>
	<g>
		<path d="M365.08,0.305c-59.293,0-107.537,48.245-107.537,107.537c0,87.646,84.128,156.578,107.537,174.053
			c23.407-17.475,107.536-86.407,107.536-174.053C472.615,48.55,424.371,0.305,365.08,0.305z M365.08,167.89
			c-33.102,0-60.038-26.936-60.038-60.048c0-33.101,26.936-60.038,60.038-60.038c33.101,0,60.037,26.937,60.037,60.038
			C425.117,140.954,398.18,167.89,365.08,167.89z"/>
	</g>
</g>
<g>
	<g>
		<path d="M225.282,363.219v108.973c30.648-6.632,58.421-41.091,76.015-91.144C277.505,370.545,251.849,364.524,225.282,363.219z"/>
	</g>
</g>
<g>
	<g>
		<path d="M371.044,304.086l-5.965,3.98l-5.965-3.98c-1.124-0.748-7.906-5.344-17.729-13.25c-0.255,2.651-0.538,5.303-0.849,7.873
			l-0.231,2.006c-2.363,24.734-6.865,47.856-12.951,69.072c16.498,8.978,31.865,20.154,46.05,33.061
			c34.784-38.223,56.196-88.822,56.196-144.455c0-1.19,0.083-3.364,0.195-6.13C401.225,283.652,373.429,302.498,371.044,304.086z"/>
	</g>
</g>
<g>
	<g>
		<path d="M320.578,390.779c-10.962,30.117-25.5,55.155-42.499,73.088c30.093-9.326,57.22-25.258,80.081-45.849
			C346.507,407.522,333.948,398.388,320.578,390.779z"/>
	</g>
</g>
<g>
</g>
<g>
</g>
<g>
</g>
<g>
</g>
<g>
</g>
<g>
</g>
<g>
</g>
<g>
</g>
<g>
</g>
<g>
</g>
<g>
</g>
<g>
</g>
<g>
</g>
<g>
</g>
<g>
</g>
</svg>
