<?xml version="1.0" encoding="iso-8859-1"?>
<!-- Generator: Adobe Illustrator 19.0.0, SVG Export Plug-In . SVG Version: 6.00 Build 0)  -->
<svg version="1.1" id="Layer_1" xmlns="http://www.w3.org/2000/svg" xmlns:xlink="http://www.w3.org/1999/xlink" x="0px" y="0px"
	 viewBox="0 0 512 512" style="enable-background:new 0 0 512 512;" xml:space="preserve">
<g>
	<g>
		<g>
			<path d="M255.502,50.139c0.164,0,0.332,0.002,0.497,0.002c0.165,0,0.333-0.002,0.497-0.002H255.502z"/>
			<path d="M255.999,50.141C176.805,50.308,3.954,88.827,3.96,166.015l0.003,47.167c0.001,16.981,13.768,30.746,30.749,30.745
				l82.056-0.007c16.981-0.001,30.746-13.768,30.744-30.75l-0.003-38.882H256h108.489l-0.003,38.882
				c-0.001,16.982,13.764,30.748,30.745,30.75l82.056,0.007c16.981,0.001,30.748-13.763,30.749-30.745l0.003-47.167
				C508.045,88.827,335.194,50.307,255.999,50.141z"/>
		</g>
	</g>
</g>
<g>
	<g>
		<path d="M482.731,277.077c-1.803,0.149-3.617,0.242-5.447,0.242l-82.057-0.007c-35.365-0.003-64.135-28.778-64.132-64.144v-5.488
			H256h-75.095v5.488c0.002,35.365-28.768,64.139-64.134,64.142l-82.061,0.007c-1.832,0-3.642-0.096-5.436-0.247L0,301.373v160.487
			h512V301.373L482.731,277.077z M256,418.729c-43.727,0-79.175-35.448-79.175-79.175s35.448-79.175,79.175-79.175
			s79.175,35.448,79.175,79.175S299.727,418.729,256,418.729z"/>
	</g>
</g>
<g>
</g>
<g>
</g>
<g>
</g>
<g>
</g>
<g>
</g>
<g>
</g>
<g>
</g>
<g>
</g>
<g>
</g>
<g>
</g>
<g>
</g>
<g>
</g>
<g>
</g>
<g>
</g>
<g>
</g>
</svg>
