<?xml version="1.0" encoding="iso-8859-1"?>
<!-- Generator: Adobe Illustrator 16.0.0, SVG Export Plug-In . SVG Version: 6.00 Build 0)  -->
<!DOCTYPE svg PUBLIC "-//W3C//DTD SVG 1.1//EN" "http://www.w3.org/Graphics/SVG/1.1/DTD/svg11.dtd">
<svg version="1.1" id="Capa_1" xmlns="http://www.w3.org/2000/svg" xmlns:xlink="http://www.w3.org/1999/xlink" x="0px" y="0px"
	 width="98.537px" height="98.537px" viewBox="0 0 98.537 98.537" style="enable-background:new 0 0 98.537 98.537;"
	 xml:space="preserve">
<g>
	<g>
		<path d="M49.271,27.057c-19.052,0-34.549,15.499-34.549,34.549c0,19.051,15.497,34.549,34.549,34.549
			c19.047,0,34.543-15.498,34.543-34.549C83.815,42.556,68.319,27.057,49.271,27.057z M27.449,79.443
			c-3.566-4.17-5.769-9.148-6.42-14.498h8.501c0.23,4.233,0.854,8.25,1.878,11.955C30.007,77.65,28.681,78.505,27.449,79.443z
			 M29.53,58.267h-8.501c0.652-5.35,2.849-10.322,6.414-14.485c1.208,0.924,2.537,1.774,3.965,2.54
			C30.384,50.023,29.75,54.031,29.53,58.267z M32.373,84.01c0.435-0.275,0.866-0.543,1.308-0.789
			c0.379,0.837,0.778,1.639,1.195,2.407C34.008,85.132,33.172,84.591,32.373,84.01z M33.687,39.98
			c-0.469-0.255-0.901-0.515-1.314-0.778c0.798-0.58,1.635-1.115,2.503-1.611C34.46,38.346,34.06,39.15,33.687,39.98z
			 M46.227,88.693c-2.537-1.244-4.887-3.989-6.774-7.904c2.164-0.648,4.437-1.081,6.774-1.281V88.693z M46.227,72.816
			c-3.171,0.224-6.204,0.789-9.06,1.691c-0.82-2.997-1.341-6.209-1.556-9.562h10.616V72.816z M46.227,58.267H35.611
			c0.215-3.346,0.736-6.556,1.55-9.563c2.862,0.896,5.9,1.467,9.065,1.693L46.227,58.267L46.227,58.267z M46.227,43.703
			c-2.344-0.2-4.61-0.633-6.774-1.282c1.887-3.925,4.237-6.664,6.774-7.908V43.703z M52.314,34.516
			c2.529,1.241,4.881,3.979,6.764,7.898c-2.162,0.648-4.427,1.085-6.764,1.281V34.516z M52.314,88.693v-9.186
			c2.347,0.199,4.626,0.632,6.77,1.275C57.201,84.708,54.848,87.453,52.314,88.693z M61.371,74.516
			c-2.85-0.906-5.895-1.473-9.057-1.699v-7.871h10.613C62.715,68.299,62.195,71.511,61.371,74.516z M52.314,58.267v-7.87
			c3.174-0.221,6.207-0.793,9.057-1.692c0.824,3.001,1.344,6.211,1.557,9.562H52.314z M63.67,85.622
			c0.409-0.751,0.807-1.552,1.182-2.382c0.466,0.259,0.896,0.518,1.306,0.771C65.359,84.592,64.532,85.132,63.67,85.622z
			 M64.864,39.992c-0.386-0.837-0.778-1.643-1.194-2.401c0.862,0.496,1.689,1.031,2.5,1.611
			C65.736,39.477,65.299,39.741,64.864,39.992z M71.09,79.433c-1.211-0.931-2.537-1.782-3.959-2.541
			c1.023-3.702,1.648-7.713,1.869-11.946h8.512C76.857,70.289,74.655,75.267,71.09,79.433z M68.999,58.267
			c-0.221-4.229-0.852-8.243-1.875-11.964c1.396-0.754,2.726-1.603,3.958-2.54c3.573,4.17,5.775,9.147,6.428,14.504H68.999z"/>
		<path d="M78.811,17.467c-0.699-0.058-1.342-0.417-1.76-0.981c-4.016-5.436-10.465-8.789-17.326-8.789
			c-0.437,0-0.873,0.013-1.31,0.04c-0.581,0.035-1.153-0.138-1.616-0.489c-4.175-3.155-9.236-4.865-14.537-4.865
			c-9.491,0-17.915,5.504-21.843,13.838c-0.352,0.746-1.056,1.263-1.873,1.376C8.082,19.053,0,28.059,0,38.918
			c0,8.015,4.412,15.007,10.927,18.712c0.318-3.095,1.01-6.077,2.018-8.912c-2.729-2.392-4.464-5.894-4.464-9.8
			c0-7.193,5.852-13.044,13.045-13.044c0.363,0,0.72,0.029,1.076,0.058c2.073,0.159,3.95-1.185,4.455-3.195
			c1.754-6.99,8.008-11.872,15.206-11.872c4.113,0,8.006,1.588,10.961,4.472c1.011,0.986,2.443,1.404,3.826,1.116
			c0.881-0.182,1.78-0.275,2.676-0.275c5.035,0,9.533,2.831,11.736,7.388c0.774,1.603,2.469,2.557,4.239,2.375
			c0.44-0.044,0.881-0.066,1.31-0.066c7.192,0,13.045,5.851,13.045,13.044c0,3.906-1.734,7.408-4.463,9.8
			c1.008,2.834,1.699,5.817,2.018,8.911c6.515-3.704,10.926-10.697,10.926-18.711C98.536,27.656,89.842,18.385,78.811,17.467z"/>
	</g>
</g>
<g>
</g>
<g>
</g>
<g>
</g>
<g>
</g>
<g>
</g>
<g>
</g>
<g>
</g>
<g>
</g>
<g>
</g>
<g>
</g>
<g>
</g>
<g>
</g>
<g>
</g>
<g>
</g>
<g>
</g>
</svg>
