<?xml version="1.0" encoding="iso-8859-1"?>
<!-- Generator: Adobe Illustrator 16.0.0, SVG Export Plug-In . SVG Version: 6.00 Build 0)  -->
<!DOCTYPE svg PUBLIC "-//W3C//DTD SVG 1.1//EN" "http://www.w3.org/Graphics/SVG/1.1/DTD/svg11.dtd">
<svg version="1.1" id="Capa_1" xmlns="http://www.w3.org/2000/svg" xmlns:xlink="http://www.w3.org/1999/xlink" x="0px" y="0px"
	 width="560.344px" height="560.344px" viewBox="0 0 560.344 560.344" style="enable-background:new 0 0 560.344 560.344;"
	 xml:space="preserve">
<g>
	<path d="M437.872,512.551V57.079c0-13.388-10.089-27.703-22.473-31.901C387.669,15.778,333.2,0,280.157,0
		c-50.318,0-105.751,12.613-134.324,20.129c-12.89,3.395-23.361,17.174-23.361,30.705v461.707c0,12.383,8.463,28.486,22.128,32.895
		c20.989,6.799,60.98,14.908,132.173,14.908c3.92,0,7.937-0.02,12.049-0.076c72.837-0.91,109.519-8.062,127.468-13.914
		C429.619,542.021,437.872,525.43,437.872,512.551z M312.163,34.779c5.135,0,9.305,4.179,9.305,9.304
		c0,5.135-4.17,9.314-9.305,9.314s-9.305-4.179-9.305-9.314C302.858,38.958,307.028,34.779,312.163,34.779z M268.481,43.098h26.001
		c1.979,0,3.586,1.606,3.586,3.586s-1.606,3.586-3.586,3.586h-26.001c-1.979,0-3.586-1.606-3.586-3.586
		S266.502,43.098,268.481,43.098z M408.295,511.508c0,1.979-1.606,3.586-3.586,3.586H156.18c-1.979,0-3.586-1.607-3.586-3.586
		V70.609c0-1.979,1.606-3.586,3.586-3.586h248.529c1.979,0,3.586,1.606,3.586,3.586V511.508z"/>
</g>
<g>
</g>
<g>
</g>
<g>
</g>
<g>
</g>
<g>
</g>
<g>
</g>
<g>
</g>
<g>
</g>
<g>
</g>
<g>
</g>
<g>
</g>
<g>
</g>
<g>
</g>
<g>
</g>
<g>
</g>
</svg>
